#N canvas 9 592 202 166 10;
#X declare -lib mrpeach;
#X declare -lib mrpeach;
#X declare -lib mrpeach;
#X declare -lib mrpeach;
#X declare -lib mrpeach;
#X declare -lib mrpeach;
#X declare -lib mrpeach;
#X declare -lib mrpeach;
#X declare -lib mrpeach;
#X declare -lib mrpeach;
#X obj 70 38 loadbang;
#X msg 70 64 \; pd dsp 1;
#X msg 134 65 \; pd dsp 0;
#N canvas 0 48 450 749 new 1;
#X obj 5 5 import mrpeach;
#X obj 5 35 udpreceive 8668;
#X obj 5 65 unpackOSC;
#X obj 5 95 MIDI;
#X obj 5 125 send~ M45498085680;
#X obj 5 155 send~ M45498085681;
#X obj 5 185 send~ M45498085682;
#X obj 5 215 routeOSC /M4549810728;
#X obj 5 245 SAWRAMP;
#X obj 5 275 send~ M45498107280;
#X obj 5 305 send~ M45498107281;
#X obj 5 335 receive~ M45498085680;
#X obj 5 365 routeOSC /M4549838176;
#X obj 5 395 VCA;
#X obj 5 425 send~ M45498381760;
#X obj 5 485 routeOSC /M4549870440;
#X obj 5 515 ADSR;
#X obj 5 545 send~ M45498704400;
#X obj 5 575 receive~ M45498085682;
#X obj 5 605 receive~ M45498704400;
#X obj 5 635 OUT;
#X obj 5 725 routeOSC /M4633242656;
#X obj 5 755 LPF;
#X obj 5 785 send~ M46332426560;
#X obj 5 815 receive~ M45498107281;
#X obj 5 845 receive~ M46332426560;
#X obj 5 875 receive~ M45498704400;
#X obj 5 905 routeOSC /M4634794896;
#X obj 5 935 CLOCK;
#X obj 5 965 send~ M46347948960;
#X obj 5 995 routeOSC /M4634833624;
#X obj 5 1025 ADSR;
#X obj 5 1055 send~ M46348336240;
#X obj 5 1115 routeOSC /M4634862440;
#X obj 5 1145 VCA;
#X obj 5 1175 send~ M46348624400;
#X obj 5 1205 receive~ M46348336240;
#X obj 5 1235 routeOSC /M4634890536;
#X obj 5 1265 NOISE;
#X obj 5 1295 send~ M46348905360;
#X obj 5 1325 send~ M46348905361;
#X obj 5 1355 send~ M46348905362;
#X obj 5 1505 routeOSC /M4549870728;
#X obj 5 1535 LPF;
#X obj 5 1565 send~ M45498707280;
#X obj 5 1595 receive~ M46348905361;
#X obj 5 1625 receive~ M45498707280;
#X obj 5 1655 routeOSC /M4634918208;
#X obj 5 1685 ADSR;
#X obj 5 1715 send~ M46349182080;
#X obj 5 1745 routeOSC /M4634943360;
#X obj 5 1775 LPF;
#X obj 5 1805 send~ M46349433600;
#X obj 5 1835 receive~ M46349182080;
#X obj 5 1865 receive~ M46348905360;
#X obj 5 1985 routeOSC /M4631854832;
#X obj 5 2015 DIV;
#X obj 5 2045 send~ M46318548320;
#X obj 5 2075 send~ M46318548321;
#X obj 5 2105 send~ M46318548322;
#X obj 5 2135 send~ M46318548323;
#X obj 5 2165 send~ M46318548324;
#X obj 5 2195 send~ M46318548325;
#X obj 5 2225 send~ M46318548326;
#X obj 5 2255 receive~ M46347948960;
#X obj 5 2285 receive~ M46318548320;
#X obj 5 2315 receive~ M46318548321;
#X obj 5 2345 routeOSC /M4634893488;
#X obj 5 2375 SQR;
#X obj 5 2405 send~ M46348934880;
#X obj 5 2435 routeOSC /M4631911312;
#X obj 5 2465 VCA;
#X obj 5 2495 send~ M46319113120;
#X obj 5 2645 routeOSC /M4634893704;
#X obj 5 2675 ADSR;
#X obj 5 2705 send~ M46348937040;
#X obj 5 2735 receive~ M46348937040;
#X obj 5 2765 receive~ M46318548325;
#X obj 5 2795 routeOSC /M4631943504;
#X obj 5 2825 LPF;
#X obj 5 2855 send~ M46319435040;
#X obj 5 2885 receive~ M46348934880;
#X obj 5 2915 receive~ M46319435040;
#X obj 5 2945 routeOSC /M4631972104;
#X obj 5 2975 SAMPLE;
#X obj 5 3005 send~ M46319721040;
#X obj 5 3065 receive~ M46348905362;
#X obj 5 3095 receive~ M46319721040;
#X obj 5 3155 routeOSC /M4632000776;
#X obj 5 3185 MIXER;
#X obj 5 3215 send~ M46320007760;
#X obj 5 3245 receive~ M45498381760;
#X obj 5 3275 receive~ M46349433600;
#X obj 5 3305 receive~ M46319113120;
#X obj 5 3335 receive~ M46348624400;
#X obj 5 3365 receive~ M46320007760;
#X obj 5 3395 receive~ M46320007760;
#X obj 5 3425 routeOSC /M4633243088;
#X obj 5 3455 ATN;
#X obj 5 3485 send~ M46332430880;
#X obj 5 3515 receive~ M46319721040;
#X obj 5 3545 receive~ M46332430880;
#X obj 5 3575 receive~ M46318548320;
#X connect 1 0 2 0;
#X connect 2 0 3 0;
#X connect 2 0 7 0;
#X connect 2 0 12 0;
#X connect 2 0 15 0;
#X connect 2 0 21 0;
#X connect 2 0 27 0;
#X connect 2 0 30 0;
#X connect 2 0 33 0;
#X connect 2 0 37 0;
#X connect 2 0 42 0;
#X connect 2 0 47 0;
#X connect 2 0 50 0;
#X connect 2 0 55 0;
#X connect 2 0 67 0;
#X connect 2 0 70 0;
#X connect 2 0 73 0;
#X connect 2 0 78 0;
#X connect 2 0 83 0;
#X connect 2 0 88 0;
#X connect 2 0 97 0;
#X connect 3 0 4 0;
#X connect 3 1 5 0;
#X connect 3 2 6 0;
#X connect 7 0 8 1;
#X connect 8 0 9 0;
#X connect 8 1 10 0;
#X connect 11 0 8 0;
#X connect 12 0 13 2;
#X connect 13 0 14 0;
#X connect 15 0 16 1;
#X connect 16 0 17 0;
#X connect 18 0 16 0;
#X connect 19 0 13 1;
#X connect 21 0 22 2;
#X connect 22 0 23 0;
#X connect 24 0 22 1;
#X connect 25 0 13 0;
#X connect 26 0 22 0;
#X connect 27 0 28 0;
#X connect 28 0 29 0;
#X connect 30 0 31 1;
#X connect 31 0 32 0;
#X connect 33 0 34 2;
#X connect 34 0 35 0;
#X connect 36 0 34 1;
#X connect 37 0 38 0;
#X connect 38 0 39 0;
#X connect 38 1 40 0;
#X connect 38 2 41 0;
#X connect 42 0 43 2;
#X connect 43 0 44 0;
#X connect 45 0 43 1;
#X connect 46 0 34 0;
#X connect 47 0 48 1;
#X connect 48 0 49 0;
#X connect 50 0 51 2;
#X connect 51 0 52 0;
#X connect 53 0 51 0;
#X connect 54 0 51 1;
#X connect 56 0 57 0;
#X connect 56 1 58 0;
#X connect 56 2 59 0;
#X connect 56 3 60 0;
#X connect 56 4 61 0;
#X connect 56 5 62 0;
#X connect 56 6 63 0;
#X connect 64 0 56 0;
#X connect 65 0 48 0;
#X connect 66 0 31 0;
#X connect 67 0 68 1;
#X connect 68 0 69 0;
#X connect 70 0 71 2;
#X connect 71 0 72 0;
#X connect 73 0 74 1;
#X connect 74 0 75 0;
#X connect 76 0 71 1;
#X connect 77 0 74 0;
#X connect 78 0 79 2;
#X connect 79 0 80 0;
#X connect 81 0 79 1;
#X connect 82 0 71 0;
#X connect 83 0 84 2;
#X connect 84 0 85 0;
#X connect 86 0 84 0;
#X connect 87 0 79 0;
#X connect 88 0 89 4;
#X connect 89 0 90 0;
#X connect 91 0 89 0;
#X connect 92 0 89 1;
#X connect 93 0 89 2;
#X connect 94 0 89 3;
#X connect 95 0 20 0;
#X connect 96 0 20 1;
#X connect 97 0 98 1;
#X connect 98 0 99 0;
#X connect 100 0 98 0;
#X connect 101 0 68 0;
#X connect 102 0 84 1;
#X restore 11 61 pd new;
#X obj 11 35 print;
#X obj 11 9 netreceive 8667 0 old;
#X obj 85 104 import mrpeach;
#X connect 0 0 1 0;
#X connect 5 0 4 0;
