#N canvas 57 589 157 157 10;
#X declare -lib mrpeach;
#X declare -lib mrpeach;
#X declare -lib mrpeach;
#X declare -lib mrpeach;
#X declare -lib mrpeach;
#X declare -lib mrpeach;
#X obj 70 38 loadbang;
#X msg 70 64 \; pd dsp 1;
#X msg 70 103 \; pd dsp 0;
#N canvas 0 48 450 749 new 1;
#X obj 10 12 import mrpeach;
#X obj 9 42 udpreceive 8668;
#X obj 6 66 unpackOSC;
#X obj 5 95 routeOSC /M4594938224;
#X obj 5 125 CLOCK;
#X obj 5 155 send~ M45949382240;
#X obj 5 545 routeOSC /M4594996792;
#X obj 5 575 SAMPLE;
#X obj 5 605 send~ M45949967920;
#X obj 5 755 routeOSC /M4595021944;
#X obj 5 785 LPF;
#X obj 5 815 send~ M45950219440;
#X obj 5 845 OUT;
#X obj 5 875 receive~ M45949382240;
#X obj 5 1415 receive~ M45949967920;
#X obj 5 1475 routeOSC /M4679372672;
#X obj 5 1505 ATN;
#X obj 5 1535 send~ M46793726720;
#X obj 5 1565 receive~ M45949967920;
#X obj 5 1655 routeOSC /M4679331352;
#X obj 5 1685 NOISE;
#X obj 5 1715 send~ M46793313520;
#X obj 5 1745 send~ M46793313521;
#X obj 5 1775 send~ M46793313522;
#X obj 5 1805 receive~ M46793313522;
#X obj 5 1835 receive~ M46793313522;
#X obj 5 1955 routeOSC /M4595020216;
#X obj 5 1985 SAWRAMP;
#X obj 5 2015 send~ M45950202160;
#X obj 5 2045 send~ M45950202161;
#X obj 5 2075 receive~ M45950202161;
#X obj 5 2105 receive~ M46793726720;
#X obj 5 2195 receive~ M46793313522;
#X obj 5 2225 routeOSC /M4679369936;
#X obj 5 2255 LPF;
#X obj 5 2285 send~ M46793699360;
#X obj 5 2315 receive~ M45950219440;
#X obj 5 2345 receive~ M46793699360;
#X obj 5 2375 receive~ M46793699360;
#X obj 5 2405 receive~ M46793313522;
#X connect 1 0 2 0;
#X connect 2 0 3 0;
#X connect 2 0 6 0;
#X connect 2 0 9 0;
#X connect 2 0 15 0;
#X connect 2 0 19 0;
#X connect 2 0 26 0;
#X connect 2 0 33 0;
#X connect 3 0 4 0;
#X connect 4 0 5 0;
#X connect 6 0 7 2;
#X connect 7 0 8 0;
#X connect 9 0 10 2;
#X connect 10 0 11 0;
#X connect 13 0 7 1;
#X connect 14 0 10 0;
#X connect 15 0 16 1;
#X connect 16 0 17 0;
#X connect 18 0 16 0;
#X connect 19 0 20 0;
#X connect 20 0 21 0;
#X connect 20 1 22 0;
#X connect 20 2 23 0;
#X connect 24 0 10 0;
#X connect 25 0 16 0;
#X connect 26 0 27 1;
#X connect 27 0 28 0;
#X connect 27 1 29 0;
#X connect 30 0 10 1;
#X connect 31 0 27 0;
#X connect 32 0 7 0;
#X connect 33 0 34 2;
#X connect 34 0 35 0;
#X connect 36 0 34 1;
#X connect 37 0 12 0;
#X connect 38 0 12 1;
#X connect 39 0 34 0;
#X restore 11 61 pd new;
#X obj 11 35 print;
#X obj 11 9 netreceive 8667 0 old;
#X connect 0 0 1 0;
#X connect 5 0 4 0;
