#N canvas 131 589 157 157 10;
#X declare -lib mrpeach;
#X declare -lib mrpeach;
#X obj 70 38 loadbang;
#X msg 70 64 \; pd dsp 1;
#X msg 70 103 \; pd dsp 0;
#N canvas 0 48 338 401 new 1;
#X obj 5 5 import mrpeach;
#X obj 5 35 udpreceive 9001;
#X obj 5 65 unpackOSC;
#X obj 5 95 routeOSC /M4502718008;
#X obj 5 125 SAWRAMP;
#X obj 5 155 send~ M45027180080;
#X obj 5 185 send~ M45027180081;
#X obj 5 215 OUT;
#X obj 5 245 receive~ M45027180081;
#X obj 5 275 receive~ M45027180081;
#X obj 5 305 routeOSC /M4502756888;
#X obj 5 335 SLFO;
#X obj 5 365 send~ M45027568880;
#X obj 5 395 receive~ M45027568880;
#X obj 5 425 MIDI;
#X obj 5 455 send~ M45027995680;
#X obj 5 485 send~ M45027995681;
#X obj 5 515 send~ M45027995682;
#X obj 5 545 receive~ M45027995680;
#X connect 1 0 2 0;
#X connect 2 0 3 0;
#X connect 2 0 10 0;
#X connect 2 0 14 0;
#X connect 3 0 4 1;
#X connect 4 0 5 0;
#X connect 4 1 6 0;
#X connect 8 0 7 0;
#X connect 9 0 7 1;
#X connect 10 0 11 0;
#X connect 11 0 12 0;
#X connect 13 0 4 0;
#X connect 14 0 15 0;
#X connect 14 1 16 0;
#X connect 14 2 17 0;
#X connect 18 0 4 0;
#X restore 11 61 pd new;
#X obj 11 35 print;
#X obj 11 9 netreceive 8666 0 old;
#X connect 0 0 1 0;
#X connect 5 0 4 0;
