#N canvas 139 868 154 141 10;
#X declare -lib mrpeach;
#X declare -lib mrpeach;
#X declare -lib mrpeach;
#X declare -lib mrpeach;
#X declare -lib mrpeach;
#X declare -lib mrpeach;
#X declare -lib mrpeach;
#X declare -lib mrpeach;
#X declare -lib mrpeach;
#X obj 72 67 loadbang;
#X msg 72 97 \; pd dsp 1;
#X msg 9 97 \; pd dsp 0;
#N canvas 3 151 450 749 new 1;
#X obj 5 5 udpreceive 8668;
#X obj 5 35 unpackOSC;
#X obj 5 65 routeOSC /M4399875136;
#X obj 5 95 NOISE;
#X obj 5 125 routeOSC /M4399877440;
#X obj 5 155 CLOCK;
#X obj 5 185 routeOSC /M4484101184;
#X obj 5 215 VCA;
#X obj 5 245 routeOSC /M4484133016;
#X obj 5 275 ADSR;
#X obj 5 335 routeOSC /M4484155296;
#X obj 5 365 LPF;
#X obj 5 395 DIV;
#X obj 5 425 routeOSC /M4484154000;
#X obj 5 455 LPF;
#X obj 5 485 routeOSC /M4485494184;
#X obj 5 515 ADSR;
#X obj 5 545 routeOSC /M4484155080;
#X obj 5 575 MIXER;
#X obj 5 665 OUT;
#X obj 5 695 routeOSC /M4485549016;
#X obj 5 725 SAWRAMP;
#X obj 5 755 routeOSC /M4485570360;
#X obj 5 785 VSEQ;
#X obj 5 815 routeOSC /M4485622456;
#X obj 5 845 ADSR;
#X obj 5 875 routeOSC /M4485651488;
#X obj 5 905 VCA;
#X obj 5 935 routeOSC /M4485675128;
#X obj 5 965 LPF;
#X obj 5 995 routeOSC /M4485699416;
#X obj 5 1025 ADSR;
#X obj 5 1055 MIDI;
#X obj 5 1085 routeOSC /M4485759560;
#X obj 5 1115 ADSR;
#X obj 5 1145 routeOSC /M4485784136;
#X obj 5 1175 VCA;
#X obj 5 1265 routeOSC /M4485814896;
#X obj 5 1295 LPF;
#X obj 5 1325 routeOSC /M4485814680;
#X obj 5 1355 SAWRAMP;
#X connect 0 0 1 0;
#X connect 1 0 2 0;
#X connect 1 0 4 0;
#X connect 1 0 6 0;
#X connect 1 0 8 0;
#X connect 1 0 10 0;
#X connect 1 0 13 0;
#X connect 1 0 15 0;
#X connect 1 0 17 0;
#X connect 1 0 20 0;
#X connect 1 0 22 0;
#X connect 1 0 24 0;
#X connect 1 0 26 0;
#X connect 1 0 28 0;
#X connect 1 0 30 0;
#X connect 1 0 33 0;
#X connect 1 0 35 0;
#X connect 1 0 37 0;
#X connect 1 0 39 0;
#X connect 2 0 3 0;
#X connect 3 0 11 1;
#X connect 3 2 14 1;
#X connect 4 0 5 0;
#X connect 5 0 12 0;
#X connect 5 0 23 0;
#X connect 5 0 25 0;
#X connect 5 0 31 0;
#X connect 6 0 7 2;
#X connect 7 0 18 0;
#X connect 8 0 9 1;
#X connect 9 0 7 1;
#X connect 10 0 11 2;
#X connect 11 0 7 0;
#X connect 12 2 9 0;
#X connect 12 5 16 0;
#X connect 13 0 14 2;
#X connect 14 0 18 1;
#X connect 15 0 16 1;
#X connect 16 0 14 0;
#X connect 17 0 18 4;
#X connect 18 0 19 0;
#X connect 18 0 19 1;
#X connect 20 0 21 1;
#X connect 21 0 29 1;
#X connect 22 0 23 2;
#X connect 23 0 21 0;
#X connect 24 0 25 1;
#X connect 25 0 27 1;
#X connect 26 0 27 2;
#X connect 27 0 18 2;
#X connect 28 0 29 2;
#X connect 29 0 27 0;
#X connect 30 0 31 1;
#X connect 31 0 29 0;
#X connect 32 0 40 0;
#X connect 32 2 34 0;
#X connect 33 0 34 1;
#X connect 34 0 36 1;
#X connect 35 0 36 2;
#X connect 36 0 18 3;
#X connect 37 0 38 2;
#X connect 38 0 36 0;
#X connect 39 0 40 1;
#X connect 40 1 38 1;
#X restore -1 9 pd new;
#X obj 8 67 print;
#X obj 51 8 import mrpeach;
#X obj 8 38 netreceive 8667 0 old;
#X connect 0 0 1 0;
#X connect 6 0 4 0;
