#N canvas 46 868 154 141 10;
#X declare -lib mrpeach;
#X declare -lib mrpeach;
#X declare -lib mrpeach;
#X declare -lib mrpeach;
#X declare -lib mrpeach;
#X declare -lib mrpeach;
#X declare -lib mrpeach;
#X declare -lib mrpeach;
#X declare -lib mrpeach;
#X obj 72 67 loadbang;
#X msg 72 97 \; pd dsp 1;
#X msg 9 97 \; pd dsp 0;
#N canvas 3 151 450 749 new 1;
#X obj 5 5 udpreceive 8668;
#X obj 5 35 unpackOSC;
#X obj 5 65 routeOSC /M4453297904;
#X obj 5 95 ADSR;
#X obj 5 125 routeOSC /M4453368104;
#X obj 5 155 LPF;
#X obj 5 185 routeOSC /M4453388440;
#X obj 5 215 NOISE;
#X obj 5 245 routeOSC /M4453391032;
#X obj 5 275 SWRMP;
#X obj 5 305 DIV;
#X obj 5 335 routeOSC /M4453446216;
#X obj 5 365 ADSR;
#X obj 5 395 routeOSC /M4527912000;
#X obj 5 425 LPF;
#X obj 5 455 MIDI;
#X obj 5 485 OUT;
#X obj 5 515 routeOSC /M4527939456;
#X obj 5 545 LPF;
#X obj 5 575 routeOSC /M4527984792;
#X obj 5 605 CLOCK;
#X obj 5 635 routeOSC /M4527986664;
#X obj 5 665 VSEQ;
#X obj 5 695 routeOSC /M4528038976;
#X obj 5 725 ADSR;
#X obj 5 755 routeOSC /M4528063696;
#X obj 5 785 MIXER;
#X obj 5 815 routeOSC /M4528090144;
#X obj 5 845 ADSR;
#X obj 5 875 routeOSC /M4528114864;
#X obj 5 905 VCA;
#X obj 5 935 routeOSC /M4528138648;
#X obj 5 965 VCA;
#X obj 5 995 routeOSC /M4528166528;
#X obj 5 1025 SWRMP;
#X obj 5 1055 routeOSC /M4528197856;
#X obj 5 1085 LPF;
#X obj 5 1115 routeOSC /M4528214096;
#X obj 5 1145 VCA;
#X obj 5 1175 routeOSC /M4528217336;
#X obj 5 1205 ADSR;
#X connect 0 0 1 0;
#X connect 1 0 2 0;
#X connect 1 0 4 0;
#X connect 1 0 6 0;
#X connect 1 0 8 0;
#X connect 1 0 11 0;
#X connect 1 0 13 0;
#X connect 1 0 17 0;
#X connect 1 0 19 0;
#X connect 1 0 21 0;
#X connect 1 0 23 0;
#X connect 1 0 25 0;
#X connect 1 0 27 0;
#X connect 1 0 29 0;
#X connect 1 0 31 0;
#X connect 1 0 33 0;
#X connect 1 0 35 0;
#X connect 1 0 37 0;
#X connect 1 0 39 0;
#X connect 2 0 3 1;
#X connect 3 0 32 1;
#X connect 4 0 5 2;
#X connect 5 0 30 0;
#X connect 6 0 7 0;
#X connect 7 0 5 1;
#X connect 7 2 14 1;
#X connect 8 0 9 1;
#X connect 9 0 18 1;
#X connect 10 3 12 0;
#X connect 10 5 40 0;
#X connect 11 0 12 1;
#X connect 12 0 30 1;
#X connect 13 0 14 2;
#X connect 14 0 26 1;
#X connect 15 0 34 0;
#X connect 15 2 28 0;
#X connect 17 0 18 2;
#X connect 18 0 32 0;
#X connect 19 0 20 0;
#X connect 20 0 22 0;
#X connect 20 0 3 0;
#X connect 20 0 24 0;
#X connect 20 0 10 0;
#X connect 21 0 22 2;
#X connect 22 0 9 0;
#X connect 23 0 24 1;
#X connect 24 0 18 0;
#X connect 25 0 26 4;
#X connect 26 0 16 1;
#X connect 26 0 16 0;
#X connect 27 0 28 1;
#X connect 28 0 36 0;
#X connect 28 0 38 1;
#X connect 29 0 30 2;
#X connect 30 0 26 0;
#X connect 31 0 32 2;
#X connect 32 0 26 2;
#X connect 33 0 34 1;
#X connect 34 1 36 1;
#X connect 35 0 36 2;
#X connect 36 0 38 0;
#X connect 37 0 38 2;
#X connect 38 0 26 3;
#X connect 39 0 40 1;
#X connect 40 0 14 0;
#X restore -1 9 pd new;
#X obj 8 67 print;
#X obj 51 8 import mrpeach;
#X obj 8 38 netreceive 8667 0 old;
#X connect 0 0 1 0;
#X connect 6 0 4 0;
