#N canvas 669 23 977 865 10;
#X declare -lib mrpeach;
#X obj 113 33 import mrpeach;
#X obj 210 33 udpreceive 8666;
#X obj 210 61 unpackOSC;
#X obj 16 109 routeOSC /LOAD;
#X msg 16 137 pd~ stop;
#X obj 76 137 unpack s;
#X obj 76 165 pipe s 1000;
#X msg 76 193 pd~ start \$1;
#X obj 24 491 pd~ -noutsig 2 -fifo 5;
#X obj 210 89 routeOSC /OSC;
#X obj 318 87 routeOSC /PLAY;
#X obj 48 467 sprintf message %s %d %d;
#X obj 199 490 pd~ -noutsig 2 -fifo 5;
#X obj 223 466 sprintf message %s %d %d;
#X obj 361 493 pd~ -noutsig 2 -fifo 5;
#X obj 385 469 sprintf message %s %d %d;
#X obj 88 550 dac~;
#X obj 263 549 dac~;
#X obj 425 552 dac~;
#X obj 678 273 +;
#X msg 677 246 1;
#X floatatom 718 246 5 0 0 0 - - -;
#X obj 718 270 mod 3;
#X obj 584 95 unpack s f f;
#X obj 652 140 > 0;
#X obj 652 171 route 0 1;
#X obj 561 163 pack f s f f;
#X obj 48 435 route 1;
#X obj 223 437 route 2;
#X obj 385 433 route 3;
#X obj 242 549 bng 15 250 50 0 empty empty empty 17 7 0 10 -262144
-1 -1;
#X obj 68 551 bng 15 250 50 0 empty empty empty 17 7 0 10 -262144 -1
-1;
#X floatatom 416 276 5 0 0 0 - - -;
#X obj 384 246 unpack s f f;
#X obj 401 300 ==;
#X obj 436 300 == 0;
#X obj 412 354 route 2;
#X obj 401 331 +;
#X msg 500 33 /BLAH/BLAH/BLAH 73 127;
#X msg 595 60 /BLAH/BLAH/BLAH 73 0;
#X obj 561 204 pack f s f f;
#X msg 412 388 3;
#X floatatom 252 279 5 0 0 0 - - -;
#X obj 218 252 unpack s f f;
#X obj 237 303 ==;
#X obj 272 303 == 0;
#X obj 248 357 route 2;
#X obj 237 334 +;
#X msg 248 392 2;
#X floatatom 84 286 5 0 0 0 - - -;
#X obj 50 259 unpack s f f;
#X obj 69 310 ==;
#X obj 104 310 == 0;
#X obj 80 364 route 2;
#X obj 69 341 +;
#X msg 80 389 1;
#X msg 343 34 /BLAH/BLAH/BLAH 75 127;
#X msg 438 59 /BLAH/BLAH/BLAH 75 0;
#X msg 656 30 /BLAH/BLAH/BLAH 13 127;
#X msg 751 57 /BLAH/BLAH/BLAH 13 0;
#X obj 677 205 del 1;
#X msg 444 413 -1;
#X obj 444 388 del 1;
#X obj 403 554 bng 15 250 50 0 empty empty empty 17 7 0 10 -262144
-1 -1;
#X msg 290 417 -1;
#X obj 290 392 del 1;
#X msg 115 414 -1;
#X obj 115 389 del 1;
#X obj 681 417 print;
#X msg 697 390 hi;
#X connect 1 0 2 0;
#X connect 2 0 3 0;
#X connect 2 0 9 0;
#X connect 2 0 10 0;
#X connect 3 0 4 0;
#X connect 3 0 5 0;
#X connect 4 0 8 0;
#X connect 4 0 12 0;
#X connect 4 0 14 0;
#X connect 5 0 6 0;
#X connect 6 0 7 0;
#X connect 7 0 8 0;
#X connect 7 0 12 0;
#X connect 7 0 14 0;
#X connect 8 1 16 0;
#X connect 8 2 16 1;
#X connect 9 0 13 0;
#X connect 9 0 15 0;
#X connect 9 0 11 0;
#X connect 10 0 23 0;
#X connect 11 0 8 0;
#X connect 11 0 31 0;
#X connect 12 1 17 0;
#X connect 12 2 17 1;
#X connect 13 0 12 0;
#X connect 13 0 30 0;
#X connect 14 1 18 0;
#X connect 14 2 18 1;
#X connect 15 0 14 0;
#X connect 15 0 63 0;
#X connect 19 0 21 0;
#X connect 20 0 19 0;
#X connect 21 0 22 0;
#X connect 21 0 26 0;
#X connect 22 0 19 1;
#X connect 23 0 26 1;
#X connect 23 0 40 1;
#X connect 23 1 26 2;
#X connect 23 1 34 0;
#X connect 23 1 40 2;
#X connect 23 1 44 0;
#X connect 23 1 51 0;
#X connect 23 2 24 0;
#X connect 23 2 26 3;
#X connect 23 2 35 0;
#X connect 23 2 40 3;
#X connect 23 2 45 0;
#X connect 23 2 52 0;
#X connect 24 0 25 0;
#X connect 25 1 60 0;
#X connect 26 0 27 0;
#X connect 26 0 28 0;
#X connect 26 0 29 0;
#X connect 27 0 11 0;
#X connect 27 0 50 0;
#X connect 28 0 13 0;
#X connect 28 0 43 0;
#X connect 29 0 15 0;
#X connect 29 0 33 0;
#X connect 32 0 34 1;
#X connect 33 1 32 0;
#X connect 34 0 37 0;
#X connect 35 0 37 1;
#X connect 36 0 41 0;
#X connect 36 0 62 0;
#X connect 37 0 36 0;
#X connect 38 0 23 0;
#X connect 39 0 23 0;
#X connect 40 0 29 0;
#X connect 40 0 28 0;
#X connect 40 0 27 0;
#X connect 41 0 40 0;
#X connect 42 0 44 1;
#X connect 43 1 42 0;
#X connect 44 0 47 0;
#X connect 45 0 47 1;
#X connect 46 0 48 0;
#X connect 46 0 65 0;
#X connect 47 0 46 0;
#X connect 48 0 40 0;
#X connect 49 0 51 1;
#X connect 50 1 49 0;
#X connect 51 0 54 0;
#X connect 52 0 54 1;
#X connect 53 0 55 0;
#X connect 53 0 67 0;
#X connect 54 0 53 0;
#X connect 55 0 40 0;
#X connect 56 0 23 0;
#X connect 57 0 23 0;
#X connect 58 0 23 0;
#X connect 59 0 23 0;
#X connect 60 0 20 0;
#X connect 61 0 32 0;
#X connect 62 0 61 0;
#X connect 64 0 42 0;
#X connect 65 0 64 0;
#X connect 66 0 49 0;
#X connect 67 0 66 0;
#X connect 69 0 68 0;
