#N canvas 510 113 494 616 10;
#X floatatom 303 324 5 0 0 0 - - -;
#X msg 268 278 0.5;
#X obj 44 130 loadbang;
#X obj 14 131 bng 15 250 50 0 empty empty empty 17 7 0 10 -262144 -1
-1;
#X floatatom 345 323 5 0 0 0 - - -;
#X floatatom 189 325 5 0 0 0 - - -;
#X floatatom 247 324 5 0 0 0 - - -;
#X floatatom 143 324 5 0 0 0 - - -;
#X floatatom 167 352 5 0 0 0 - - -;
#X text 356 308 REL;
#X text 306 310 SUS;
#X text 190 309 ATK;
#X text 247 309 DCY;
#X text 140 353 OUT;
#X text 145 308 GATE;
#X obj 138 505 line;
#X obj 138 473 pack 1 \$1;
#X msg 44 180 0 0;
#X obj 138 556 sel 1;
#X obj 138 593 bng 15 250 50 0 empty empty empty 17 7 0 10 -262144
-1 -1;
#X obj 190 439 pack \$2 \$1;
#X obj 295 395 sel 0;
#X obj 295 372 tgl 15 0 empty empty empty 17 7 0 10 -262144 -1 -1 0
1;
#X obj 138 415 bng 15 250 50 0 empty empty empty 17 7 0 10 -262144
-1 -1;
#X obj 295 421 pack 0 \$1;
#X obj 189 382 * 2000;
#X obj 247 383 * 2000;
#X obj 346 383 * 2000;
#X floatatom 138 533 5 0 0 0 - - -;
#X msg 138 446 1;
#X obj 83 532 outlet~;
#X text 74 74 GATE;
#X obj 273 132 inlet;
#X text 277 114 OSC;
#X obj 189 211 routeOSC /attack;
#X obj 273 165 routeOSC /ENV;
#X obj 302 210 routeOSC /sustain;
#X obj 345 234 routeOSC /release;
#X obj 247 234 routeOSC /decay;
#X obj 93 237 sigToGate;
#X obj 69 95 inlet~;
#X connect 0 0 20 0;
#X connect 1 0 0 0;
#X connect 1 0 6 0;
#X connect 1 0 5 0;
#X connect 1 0 4 0;
#X connect 2 0 1 0;
#X connect 2 0 17 0;
#X connect 3 0 1 0;
#X connect 3 0 17 0;
#X connect 4 0 27 0;
#X connect 5 0 25 0;
#X connect 6 0 26 0;
#X connect 15 0 28 0;
#X connect 15 0 8 0;
#X connect 16 0 15 0;
#X connect 17 0 15 0;
#X connect 18 0 19 0;
#X connect 19 0 0 0;
#X connect 19 0 6 0;
#X connect 20 0 15 0;
#X connect 21 0 24 0;
#X connect 21 1 23 0;
#X connect 22 0 21 0;
#X connect 23 0 29 0;
#X connect 23 0 5 0;
#X connect 24 0 15 0;
#X connect 25 0 16 1;
#X connect 26 0 20 1;
#X connect 27 0 24 1;
#X connect 28 0 18 0;
#X connect 28 0 30 0;
#X connect 29 0 16 0;
#X connect 32 0 35 0;
#X connect 34 0 5 0;
#X connect 35 0 34 0;
#X connect 35 0 36 0;
#X connect 35 0 37 0;
#X connect 35 0 38 0;
#X connect 36 0 0 0;
#X connect 37 0 4 0;
#X connect 38 0 6 0;
#X connect 39 0 22 0;
#X connect 40 0 39 0;
#X coords 0 616 1 615 240 60 0;
