#N canvas 397 79 460 447 10;
#X obj 30 242 outlet~;
#X obj 147 52 inlet;
#X floatatom 105 133 5 0 0 0 - - -;
#X obj 30 52 inlet~;
#X obj 480 209;
#X obj 258 71 initbang;
#X obj 30 166 *~;
#X obj 147 90 routeOSC /ATN;
#X obj 147 90 routeOSC /amount;
#X msg 258 109 0.5;
#X obj 30 128 +~ 1;
#X obj 30 204 -~ 1;
#X obj 30 90 feedbacker~;
#X connect 1 0 7 0;
#X connect 2 0 6 1;
#X connect 3 0 12 0;
#X connect 5 0 9 0;
#X connect 6 0 11 0;
#X connect 7 0 8 0;
#X connect 8 0 2 0;
#X connect 9 0 2 0;
#X connect 10 0 6 0;
#X connect 11 0 0 0;
#X connect 12 0 10 0;
