#N canvas 397 79 460 447 10;
#X declare -lib mrpeach;
#X obj 18 359 outlet~;
#X obj 74 44 inlet;
#X floatatom 34 146 5 0 0 0 - - -;
#X obj 17 44 inlet~;
#X obj 480 220;
#X obj 185 70 initbang;
#X obj 19 317 *~;
#X obj 74 100 routeOSC /amount;
#X msg 184 101 0.5;
#X obj 74 72 routeOSC /BI-ATN;
#X obj 296 50 import mrpeach;
#X obj 19 185 feedbacker~;
#X connect 1 0 9 0;
#X connect 2 0 6 1;
#X connect 3 0 11 0;
#X connect 5 0 8 0;
#X connect 6 0 0 0;
#X connect 7 0 2 0;
#X connect 8 0 2 0;
#X connect 9 0 7 0;
#X connect 11 0 6 0;
