#N canvas 669 109 450 300 10;
#X declare -lib mrpeach;
#X obj 19 25 inlet~;
#X obj 107 25 inlet;
#X floatatom 107 106 5 0 0 0 - - -;
#X obj 211 25 import mrpeach;
#X obj 107 52 routeOSC /SAWRAMP;
#X floatatom 217 115 5 0 0 0 - - -;
#X obj 107 79 routeOSC /cut;
#X obj 217 88 routeOSC /res;
#X obj 20 242 outlet~;
#X obj 20 215 bp~;
#X obj 107 132 * 127;
#X obj 107 159 mtof;
#X obj 217 141 * 6;
#X obj 19 88 feedbacker~;
#X connect 0 0 13 0;
#X connect 1 0 4 0;
#X connect 2 0 10 0;
#X connect 4 0 6 0;
#X connect 4 0 7 0;
#X connect 5 0 12 0;
#X connect 6 0 2 0;
#X connect 7 0 5 0;
#X connect 9 0 8 0;
#X connect 10 0 11 0;
#X connect 11 0 9 1;
#X connect 12 0 9 2;
#X connect 13 0 9 0;
