#N canvas 557 34 374 399 10;
#X obj 80 9 inlet;
#X floatatom 80 94 5 0 0 0 - - -;
#X obj 80 36 routeOSC /CLOCK;
#X obj 41 154 -;
#X obj 40 186 metro 2500;
#X msg 10 153 1;
#X obj 80 64 routeOSC /speed;
#X obj 40 267 sig~;
#X obj 40 292 outlet~;
#X msg 41 121 5000;
#X obj 80 121 * 4999;
#X floatatom 40 240 5 0 0 0 - - -;
#X obj 40 214 tgl 15 0 empty empty empty 17 7 0 10 -262144 -1 -1 0
1;
#X obj 10 43 initbang;
#X connect 0 0 2 0;
#X connect 1 0 5 0;
#X connect 1 0 10 0;
#X connect 2 0 6 0;
#X connect 3 0 4 1;
#X connect 4 0 12 0;
#X connect 5 0 4 0;
#X connect 6 0 1 0;
#X connect 7 0 8 0;
#X connect 9 0 3 0;
#X connect 10 0 9 0;
#X connect 10 0 3 1;
#X connect 11 0 7 0;
#X connect 12 0 11 0;
#X connect 13 0 5 0;
