#N canvas 954 135 432 358 10;
#X obj 158 -62 sigToGate;
#X obj 158 39 +;
#X floatatom 188 39 5 0 0 0 - - -;
#X obj 1 222 outlet~;
#X obj 1 170 mod 2;
#X obj 1 196 == 0;
#X obj 61 222 outlet~;
#X obj 61 196 == 0;
#X obj 121 222 outlet~;
#X obj 121 196 == 0;
#X obj 181 222 outlet~;
#X obj 181 196 == 0;
#X obj 241 222 outlet~;
#X obj 241 196 == 0;
#X obj 301 222 outlet~;
#X obj 301 196 == 0;
#X obj 361 222 outlet~;
#X obj 361 196 == 0;
#X obj 61 170 mod 3;
#X obj 121 170 mod 4;
#X obj 181 170 mod 5;
#X obj 241 170 mod 6;
#X obj 301 170 mod 7;
#X obj 361 170 mod 8;
#X obj 158 -33 sel 1;
#X msg 158 -6 1;
#X obj 226 -63 loadbang;
#X msg 188 4 0;
#X obj 159 -100 inlet~;
#X connect 0 0 24 0;
#X connect 1 0 2 0;
#X connect 2 0 1 1;
#X connect 2 0 4 0;
#X connect 2 0 18 0;
#X connect 2 0 19 0;
#X connect 2 0 20 0;
#X connect 2 0 21 0;
#X connect 2 0 22 0;
#X connect 2 0 23 0;
#X connect 4 0 5 0;
#X connect 5 0 3 0;
#X connect 7 0 6 0;
#X connect 9 0 8 0;
#X connect 11 0 10 0;
#X connect 13 0 12 0;
#X connect 15 0 14 0;
#X connect 17 0 16 0;
#X connect 18 0 7 0;
#X connect 19 0 9 0;
#X connect 20 0 11 0;
#X connect 21 0 13 0;
#X connect 22 0 15 0;
#X connect 23 0 17 0;
#X connect 24 0 25 0;
#X connect 25 0 1 0;
#X connect 26 0 27 0;
#X connect 27 0 2 0;
#X connect 28 0 0 0;
