#N canvas 379 161 556 398 10;
#X obj 136 -90 inlet~;
#X obj 136 -39 sigToGate;
#X msg 136 -12 1;
#X floatatom 163 17 5 0 0 0 - - -;
#X obj 136 16 +;
#X obj 13 76 == 0;
#X obj 13 102 sig~;
#X obj 13 128 outlet~;
#X obj 63 76 == 0;
#X obj 113 76 == 0;
#X obj 163 76 == 0;
#X obj 213 76 == 0;
#X obj 263 76 == 0;
#X obj 313 76 == 0;
#X obj 63 102 sig~;
#X obj 63 128 outlet~;
#X obj 113 102 sig~;
#X obj 113 128 outlet~;
#X obj 163 102 sig~;
#X obj 163 128 outlet~;
#X obj 213 102 sig~;
#X obj 213 128 outlet~;
#X obj 263 102 sig~;
#X obj 263 128 outlet~;
#X obj 313 102 sig~;
#X obj 313 128 outlet~;
#X obj 136 -64 feedbacker~;
#X obj 13 49 mod 2;
#X obj 63 49 mod 3;
#X obj 113 49 mod 4;
#X obj 163 49 mod 5;
#X obj 213 49 mod 6;
#X obj 263 49 mod 7;
#X obj 313 49 mod 8;
#X connect 0 0 26 0;
#X connect 1 0 2 0;
#X connect 2 0 4 0;
#X connect 3 0 4 1;
#X connect 3 0 27 0;
#X connect 3 0 28 0;
#X connect 3 0 29 0;
#X connect 3 0 30 0;
#X connect 3 0 31 0;
#X connect 3 0 32 0;
#X connect 3 0 33 0;
#X connect 4 0 3 0;
#X connect 5 0 6 0;
#X connect 6 0 7 0;
#X connect 8 0 14 0;
#X connect 9 0 16 0;
#X connect 10 0 18 0;
#X connect 11 0 20 0;
#X connect 12 0 22 0;
#X connect 13 0 24 0;
#X connect 14 0 15 0;
#X connect 16 0 17 0;
#X connect 18 0 19 0;
#X connect 20 0 21 0;
#X connect 22 0 23 0;
#X connect 24 0 25 0;
#X connect 26 0 1 0;
#X connect 27 0 5 0;
#X connect 28 0 8 0;
#X connect 29 0 9 0;
#X connect 30 0 10 0;
#X connect 31 0 11 0;
#X connect 32 0 12 0;
#X connect 33 0 13 0;
