#N canvas 514 101 724 821 10;
#X floatatom 303 216 5 0 0 0 - - -;
#X msg 268 170 0.5;
#X obj 44 22 loadbang;
#X obj 14 23 bng 15 250 50 0 empty empty empty 17 7 0 10 -262144 -1
-1;
#X floatatom 345 215 5 0 0 0 - - -;
#X floatatom 189 217 5 0 0 0 - - -;
#X floatatom 247 216 5 0 0 0 - - -;
#X obj 144 29 inlet;
#X floatatom 143 216 5 0 0 0 - - -;
#X floatatom 167 244 5 0 0 0 - - -;
#X text 356 200 REL;
#X text 306 202 SUS;
#X text 190 201 ATK;
#X text 247 201 DCY;
#X text 140 245 OUT;
#X text 145 200 GATE;
#X obj 138 397 line;
#X obj 138 365 pack 1 \$1;
#X msg 44 72 0 0;
#X obj 138 448 sel 1;
#X obj 138 485 bng 15 250 50 0 empty empty empty 17 7 0 10 -262144
-1 -1;
#X obj 190 331 pack \$2 \$1;
#X obj 295 287 sel 0;
#X obj 295 264 tgl 15 0 empty empty empty 17 7 0 10 -262144 -1 -1 0
1;
#X obj 138 307 bng 15 250 50 0 empty empty empty 17 7 0 10 -262144
-1 -1;
#X obj 295 313 pack 0 \$1;
#X obj 189 274 * 2000;
#X obj 247 275 * 2000;
#X obj 346 275 * 2000;
#X floatatom 138 425 5 0 0 0 - - -;
#X msg 138 338 1;
#X obj 51 550 outlet~;
#X text 141 13 GATE;
#X obj 273 24 inlet;
#X text 277 6 OSC;
#X obj 273 57 route /ENV;
#X obj 189 103 route /attack;
#X obj 247 126 route /decay;
#X obj 345 126 route /release;
#X obj 303 102 route /sustain;
#X connect 0 0 21 0;
#X connect 1 0 0 0;
#X connect 1 0 6 0;
#X connect 1 0 5 0;
#X connect 1 0 4 0;
#X connect 2 0 1 0;
#X connect 2 0 18 0;
#X connect 3 0 1 0;
#X connect 3 0 18 0;
#X connect 4 0 28 0;
#X connect 5 0 26 0;
#X connect 6 0 27 0;
#X connect 7 0 8 0;
#X connect 7 0 23 0;
#X connect 16 0 29 0;
#X connect 16 0 9 0;
#X connect 16 0 31 0;
#X connect 17 0 16 0;
#X connect 18 0 16 0;
#X connect 19 0 20 0;
#X connect 20 0 0 0;
#X connect 20 0 6 0;
#X connect 21 0 16 0;
#X connect 22 0 25 0;
#X connect 22 1 24 0;
#X connect 23 0 22 0;
#X connect 24 0 30 0;
#X connect 24 0 5 0;
#X connect 25 0 16 0;
#X connect 26 0 17 1;
#X connect 27 0 21 1;
#X connect 28 0 25 1;
#X connect 29 0 19 0;
#X connect 30 0 17 0;
#X connect 33 0 35 0;
#X connect 35 0 36 0;
#X connect 35 0 37 0;
#X connect 35 0 38 0;
#X connect 35 0 39 0;
#X connect 36 0 5 0;
#X connect 37 0 6 0;
#X connect 38 0 4 0;
#X connect 39 0 0 0;
#X coords 0 821 1 820 240 60 2 140 200;
