#N canvas 461 152 1029 613 10;
#X obj 125 34 inlet~;
#X obj 187 34 inlet~;
#X text 246 12 FREQ;
#X obj 315 34 inlet;
#X obj 247 34 inlet;
#X text 134 17 Input;
#X text 192 15 Input;
#X obj 125 88 +~;
#X text 316 12 AMNT;
#X text 371 11 CV;
#X obj 367 34 inlet~;
#X obj 547 34 inlet;
#X text 546 12 RES;
#X obj 223 572 outlet~;
#X obj 283 572 outlet~;
#X obj 353 572 outlet~;
#X obj 413 572 outlet~;
#X obj 319 297 lowpass;
#X obj 367 77 *~;
#X obj 415 34 inlet;
#X text 416 12 AMNT;
#X text 471 11 CV;
#X obj 467 34 inlet~;
#X obj 467 77 *~;
#X obj 595 34 inlet;
#X text 596 12 AMNT;
#X text 651 11 CV;
#X obj 647 34 inlet~;
#X obj 647 88 *~;
#X obj 715 34 inlet;
#X text 716 12 AMNT;
#X text 771 11 CV;
#X obj 767 34 inlet~;
#X obj 767 88 *~;
#X obj 512 -46 initbang;
#X msg 511 -23 0.5;
#X obj 367 115 +~;
#X obj 647 117 +~;
#X obj 367 151 +~;
#X obj 647 150 +~;
#X obj 319 362 biquad~;
#X obj 439 362 biquad~;
#X obj 439 259 trigger bang float;
#X obj 319 259 trigger bang float;
#X obj 559 362 biquad~;
#X obj 679 362 biquad~;
#X obj 679 259 trigger bang float;
#X obj 559 259 trigger bang float;
#X obj 439 399 outlet~;
#X obj 319 398 outlet~;
#X obj 679 399 outlet~;
#X obj 559 398 outlet~;
#X obj 446 133 bang~;
#X obj 367 180 snapshot~;
#X obj 367 212 * 2000;
#X obj 439 297 highpass;
#X obj 559 297 bandpass;
#X obj 679 297 notch;
#X obj 647 215 * 300;
#X obj 724 141 bang~;
#X obj 647 188 snapshot~;
#X connect 0 0 7 0;
#X connect 1 0 7 1;
#X connect 3 0 18 1;
#X connect 4 0 38 1;
#X connect 7 0 40 0;
#X connect 7 0 41 0;
#X connect 7 0 44 0;
#X connect 7 0 45 0;
#X connect 10 0 18 0;
#X connect 11 0 39 1;
#X connect 17 0 40 0;
#X connect 18 0 36 0;
#X connect 19 0 23 1;
#X connect 22 0 23 0;
#X connect 23 0 36 1;
#X connect 24 0 28 1;
#X connect 27 0 28 0;
#X connect 28 0 37 0;
#X connect 29 0 33 1;
#X connect 32 0 33 0;
#X connect 33 0 37 1;
#X connect 34 0 35 0;
#X connect 35 0 23 1;
#X connect 35 0 18 1;
#X connect 35 0 28 1;
#X connect 35 0 33 1;
#X connect 36 0 38 0;
#X connect 37 0 39 0;
#X connect 38 0 53 0;
#X connect 39 0 60 0;
#X connect 40 0 49 0;
#X connect 41 0 48 0;
#X connect 42 0 55 0;
#X connect 42 1 55 1;
#X connect 43 0 17 0;
#X connect 43 1 17 1;
#X connect 44 0 51 0;
#X connect 45 0 50 0;
#X connect 46 0 57 0;
#X connect 46 1 57 1;
#X connect 47 0 56 0;
#X connect 47 1 56 1;
#X connect 52 0 53 0;
#X connect 53 0 54 0;
#X connect 54 0 17 0;
#X connect 54 0 55 0;
#X connect 54 0 56 0;
#X connect 54 0 57 0;
#X connect 55 0 41 0;
#X connect 56 0 44 0;
#X connect 57 0 45 0;
#X connect 58 0 43 0;
#X connect 58 0 42 0;
#X connect 58 0 47 0;
#X connect 58 0 46 0;
#X connect 59 0 60 0;
#X connect 60 0 58 0;
