#N canvas 379 161 556 398 10;
#X obj 136 -90 inlet~;
#X obj 136 -39 sigToGate;
#X msg 136 -12 1;
#X floatatom 163 17 5 0 0 0 - - -;
#X obj 136 16 +;
#X obj 13 72 sig~;
#X obj 13 98 outlet~;
#X obj 63 49 route 3;
#X obj 113 49 route 4;
#X obj 163 49 route 5;
#X obj 213 49 route 6;
#X obj 263 49 route 7;
#X obj 313 49 route 8;
#X obj 63 72 sig~;
#X obj 63 98 outlet~;
#X obj 113 72 sig~;
#X obj 113 98 outlet~;
#X obj 163 72 sig~;
#X obj 163 98 outlet~;
#X obj 213 72 sig~;
#X obj 213 98 outlet~;
#X obj 263 72 sig~;
#X obj 263 98 outlet~;
#X obj 313 72 sig~;
#X obj 313 98 outlet~;
#X obj 136 -64 feedbacker~;
#X obj 13 49 route 2;
#X obj -37 72 sig~;
#X obj -37 98 outlet~;
#X obj -37 51 route 1;
#X msg 163 -12 0;
#X obj 276 -79 inlet~;
#X obj 276 -29 sigToGate;
#X obj 276 -54 feedbacker~;
#X connect 0 0 25 0;
#X connect 1 0 2 0;
#X connect 2 0 4 0;
#X connect 3 0 4 1;
#X connect 3 0 7 0;
#X connect 3 0 8 0;
#X connect 3 0 9 0;
#X connect 3 0 10 0;
#X connect 3 0 11 0;
#X connect 3 0 12 0;
#X connect 3 0 26 0;
#X connect 3 0 29 0;
#X connect 4 0 3 0;
#X connect 5 0 6 0;
#X connect 7 0 13 0;
#X connect 8 0 15 0;
#X connect 9 0 17 0;
#X connect 10 0 19 0;
#X connect 11 0 21 0;
#X connect 12 0 23 0;
#X connect 12 0 30 0;
#X connect 13 0 14 0;
#X connect 15 0 16 0;
#X connect 17 0 18 0;
#X connect 19 0 20 0;
#X connect 21 0 22 0;
#X connect 23 0 24 0;
#X connect 25 0 1 0;
#X connect 26 0 5 0;
#X connect 27 0 28 0;
#X connect 29 0 27 0;
#X connect 30 0 3 0;
#X connect 31 0 33 0;
#X connect 32 0 30 0;
#X connect 33 0 32 0;
