#N canvas 568 131 583 433 10;
#X obj 251 225 ==;
#X obj 251 225 invert;
#X obj 251 252 sig~;
#X obj 251 279 outlet~;
#X text 251 305 XOR;
#X obj 190 225 max;
#X obj 190 252 sig~;
#X obj 190 279 outlet~;
#X text 190 305 OR;
#X obj 168 252 tgl 15 0 empty empty empty 17 7 0 10 -262144 -1 -1 0
1;
#X obj 234 252 tgl 15 0 empty empty empty 17 7 0 10 -262144 -1 -1 0
1;
#X floatatom 114 124 5 0 0 0 - - -;
#X floatatom 205 124 5 0 0 0 - - -;
#X obj 244 123 bng 15 250 50 0 empty empty empty 17 7 0 10 -262144
-1 -1;
#X obj 463 204 invert;
#X obj 463 177 sigToGate;
#X obj 463 282 outlet~;
#X floatatom 463 231 5 0 0 0 - - -;
#X obj 463 123 inlet~;
#X obj 373 204 invert;
#X obj 373 177 sigToGate;
#X obj 373 282 outlet~;
#X floatatom 373 231 5 0 0 0 - - -;
#X obj 373 123 inlet~;
#X obj 533 123 inlet;
#X obj 316 225 max;
#X obj 316 252 invert;
#X obj 297 282 tgl 15 0 empty empty empty 17 7 0 10 -262144 -1 -1 0
1;
#X obj 315 252 sig~;
#X obj 316 279 outlet~;
#X text 316 305 NOR;
#X obj 52 279 outlet~;
#X obj 52 252 sig~;
#X obj 29 225 tgl 15 0 empty empty empty 17 7 0 10 -262144 -1 -1 0
1;
#X obj 122 306 outlet~;
#X obj 122 279 sig~;
#X obj 100 252 tgl 15 0 empty empty empty 17 7 0 10 -262144 -1 -1 0
1;
#X obj 122 225 &;
#X obj 122 252 invert;
#X obj 52 225 &;
#X obj 114 97 sigToGate;
#X obj 114 43 inlet~;
#X obj 205 97 sigToGate;
#X obj 205 43 inlet~;
#X obj 114 70 feedbacker~;
#X obj 205 70 feedbacker~;
#X obj 373 150 feedbacker~;
#X obj 463 150 feedbacker~;
#X connect 0 0 1 0;
#X connect 1 0 2 0;
#X connect 1 0 10 0;
#X connect 2 0 3 0;
#X connect 5 0 6 0;
#X connect 5 0 9 0;
#X connect 6 0 7 0;
#X connect 11 0 5 0;
#X connect 11 0 0 0;
#X connect 11 0 25 0;
#X connect 11 0 37 0;
#X connect 11 0 39 0;
#X connect 12 0 0 1;
#X connect 12 0 5 1;
#X connect 12 0 13 0;
#X connect 12 0 25 1;
#X connect 12 0 37 1;
#X connect 12 0 39 1;
#X connect 13 0 0 0;
#X connect 13 0 5 0;
#X connect 13 0 25 0;
#X connect 13 0 11 0;
#X connect 14 0 17 0;
#X connect 15 0 14 0;
#X connect 17 0 16 0;
#X connect 18 0 47 0;
#X connect 19 0 22 0;
#X connect 20 0 19 0;
#X connect 22 0 21 0;
#X connect 23 0 46 0;
#X connect 25 0 26 0;
#X connect 26 0 27 0;
#X connect 26 0 28 0;
#X connect 28 0 29 0;
#X connect 32 0 31 0;
#X connect 35 0 34 0;
#X connect 37 0 38 0;
#X connect 38 0 35 0;
#X connect 38 0 36 0;
#X connect 39 0 33 0;
#X connect 39 0 32 0;
#X connect 40 0 11 0;
#X connect 41 0 44 0;
#X connect 42 0 12 0;
#X connect 43 0 45 0;
#X connect 44 0 40 0;
#X connect 45 0 42 0;
#X connect 46 0 20 0;
#X connect 47 0 15 0;
