#N canvas 200 32 522 423 10;
#X declare -lib mrpeach;
#X obj 72 45 inlet~;
#X obj 225 16 inlet;
#X floatatom 225 101 5 0 0 0 - - -;
#X obj 329 14 import mrpeach;
#X floatatom 335 74 5 0 0 0 - - -;
#X obj 225 71 routeOSC /cut;
#X obj 335 44 routeOSC /res;
#X obj 18 225 moog~;
#X obj 335 106 * 3;
#X obj 335 140 + 1;
#X obj 225 127 * 8000;
#X obj 18 259 outlet~;
#X obj 29 45 inlet~;
#X floatatom 123 73 5 0 0 0 - - -;
#X obj 122 45 routeOSC /vcamnt;
#X obj 29 181 +~;
#X obj 123 112 * 8000;
#X obj 29 138 *~;
#X obj 121 -15 loadbang;
#X msg 121 15 0.5;
#X msg 80 16 0;
#X obj 225 44 routeOSC /LPF;
#X connect 0 0 11 0;
#X connect 1 0 21 0;
#X connect 2 0 10 0;
#X connect 4 0 8 0;
#X connect 5 0 2 0;
#X connect 6 0 4 0;
#X connect 8 0 9 0;
#X connect 9 0 7 2;
#X connect 10 0 15 1;
#X connect 12 0 17 0;
#X connect 13 0 16 0;
#X connect 14 0 13 0;
#X connect 15 0 7 1;
#X connect 16 0 17 1;
#X connect 17 0 15 0;
#X connect 18 0 19 0;
#X connect 18 0 20 0;
#X connect 19 0 13 0;
#X connect 19 0 2 0;
#X connect 19 0 4 0;
#X connect 20 0 17 0;
#X connect 21 0 5 0;
#X connect 21 0 6 0;
#X connect 21 0 14 0;
