#N canvas 1021 54 497 518 10;
#X obj 101 355 / 127;
#X obj 101 387 * 2;
#X obj 101 421 -~ 1;
#X obj 154 355 / 127;
#X obj 154 387 * 2;
#X obj 154 421 -~ 1;
#X obj 101 455 outlet~;
#X obj 154 455 outlet~;
#X obj 207 455 outlet~;
#X obj 101 249 route /MIDI;
#X obj 207 355 route /gate;
#X obj 154 324 route /vlcty;
#X obj 101 297 route /pitch;
#X obj 101 225 inlet;
#X text 106 211 OSC;
#X obj 207 255 > 0;
#X obj 163 113 notein 1;
#X obj 162 145 pack f f;
#X msg 162 174 \$1 \$2;
#X obj 286 278 print;
#X obj 162 209 poly 1 0;
#X connect 0 0 1 0;
#X connect 1 0 2 0;
#X connect 2 0 6 0;
#X connect 3 0 4 0;
#X connect 4 0 5 0;
#X connect 5 0 7 0;
#X connect 9 0 12 0;
#X connect 9 0 11 0;
#X connect 9 0 10 0;
#X connect 10 0 8 0;
#X connect 11 0 3 0;
#X connect 12 0 0 0;
#X connect 13 0 9 0;
#X connect 15 0 8 0;
#X connect 16 0 17 0;
#X connect 16 1 17 1;
#X connect 17 0 18 0;
#X connect 18 0 20 0;
#X connect 20 1 0 0;
#X connect 20 2 15 0;
#X connect 20 2 3 0;
#X coords 0 518 1 517 100 20 0;
