#N canvas 766 95 667 676 10;
#X floatatom 121 188 5 0 0 0 - - -;
#X floatatom 175 188 5 0 0 0 - - -;
#X floatatom 14 189 5 0 0 0 - - -;
#X floatatom 66 187 5 0 0 0 - - -;
#X floatatom 211 188 5 0 0 0 - - -;
#X obj 15 229 * 2;
#X obj 66 229 * 2;
#X obj 121 229 * 2;
#X obj 175 229 * 2;
#X obj 211 228 * 2;
#X obj 99 -81 initbang;
#X msg 99 -54 0.5;
#X obj 0 276 *~;
#X obj 51 275 *~;
#X obj 106 276 *~;
#X obj 160 272 *~;
#X obj 0 311 +~;
#X obj 106 313 +~;
#X obj 0 354 +~;
#X obj 0 391 *~;
#X obj 0 61 inlet~;
#X obj 51 61 inlet~;
#X obj 106 60 inlet~;
#X obj 160 60 inlet~;
#X obj 211 -81 inlet;
#X obj 0 424 outlet~;
#X text 4 44 Input1;
#X text 53 44 Input2;
#X text 103 44 Input3;
#X text 153 44 Input4;
#X obj 211 -60 routeOSC /MIXER;
#X obj 211 -8 routeOSC /mix;
#X obj 121 -8 routeOSC /level3;
#X obj 13 -7 routeOSC /level1;
#X obj 66 14 routeOSC /level2;
#X obj 176 14 routeOSC /level4;
#X obj 9 113 feedbacker~;
#X obj 159 89 feedbacker~;
#X obj 106 116 feedbacker~;
#X obj 48 91 feedbacker~;
#X connect 0 0 7 0;
#X connect 1 0 8 0;
#X connect 2 0 5 0;
#X connect 3 0 6 0;
#X connect 4 0 9 0;
#X connect 5 0 12 1;
#X connect 6 0 13 1;
#X connect 7 0 14 1;
#X connect 8 0 15 1;
#X connect 9 0 19 1;
#X connect 10 0 11 0;
#X connect 11 0 2 0;
#X connect 11 0 3 0;
#X connect 11 0 0 0;
#X connect 11 0 1 0;
#X connect 11 0 4 0;
#X connect 12 0 16 0;
#X connect 13 0 16 1;
#X connect 14 0 17 0;
#X connect 15 0 17 1;
#X connect 16 0 18 0;
#X connect 17 0 18 1;
#X connect 18 0 19 0;
#X connect 19 0 25 0;
#X connect 20 0 36 0;
#X connect 21 0 39 0;
#X connect 22 0 38 0;
#X connect 23 0 37 0;
#X connect 24 0 30 0;
#X connect 30 0 31 0;
#X connect 30 0 32 0;
#X connect 30 0 33 0;
#X connect 30 0 34 0;
#X connect 30 0 35 0;
#X connect 31 0 4 0;
#X connect 32 0 0 0;
#X connect 33 0 2 0;
#X connect 34 0 3 0;
#X connect 35 0 1 0;
#X connect 36 0 12 0;
#X connect 37 0 15 0;
#X connect 38 0 14 0;
#X connect 39 0 13 0;
#X coords 0 676 1 675 60 20 0;
