#N canvas 811 236 395 441 10;
#X floatatom 121 181 5 0 0 0 - - -;
#X floatatom 175 181 5 0 0 0 - - -;
#X floatatom 14 182 5 0 0 0 - - -;
#X floatatom 66 180 5 0 0 0 - - -;
#X floatatom 211 181 5 0 0 0 - - -;
#X obj 15 222 * 2;
#X obj 66 222 * 2;
#X obj 121 222 * 2;
#X obj 175 222 * 2;
#X obj 211 221 * 2;
#X obj 99 2 loadbang;
#X msg 99 29 0.5;
#X obj 0 269 *~;
#X obj 51 268 *~;
#X obj 106 269 *~;
#X obj 160 265 *~;
#X obj 0 304 +~;
#X obj 106 306 +~;
#X obj 0 347 +~;
#X obj 0 384 *~;
#X obj 0 144 inlet~;
#X obj 51 144 inlet~;
#X obj 106 143 inlet~;
#X obj 160 143 inlet~;
#X obj 13 76 route /level1;
#X obj 66 97 route /level2;
#X obj 121 75 route /level3;
#X obj 176 97 route /level2;
#X obj 211 2 inlet;
#X obj 211 25 route /MIXER;
#X obj 211 75 route /mix;
#X obj 0 417 outlet~;
#X text 4 127 Input1;
#X text 53 127 Input2;
#X text 103 127 Input3;
#X text 153 127 Input4;
#X connect 0 0 7 0;
#X connect 1 0 8 0;
#X connect 2 0 5 0;
#X connect 3 0 6 0;
#X connect 4 0 9 0;
#X connect 5 0 12 1;
#X connect 6 0 13 1;
#X connect 7 0 14 1;
#X connect 8 0 15 1;
#X connect 9 0 19 1;
#X connect 10 0 11 0;
#X connect 11 0 2 0;
#X connect 11 0 3 0;
#X connect 11 0 0 0;
#X connect 11 0 1 0;
#X connect 11 0 4 0;
#X connect 12 0 16 0;
#X connect 13 0 16 1;
#X connect 14 0 17 0;
#X connect 15 0 17 1;
#X connect 16 0 18 0;
#X connect 17 0 18 1;
#X connect 18 0 19 0;
#X connect 19 0 31 0;
#X connect 20 0 12 0;
#X connect 21 0 13 0;
#X connect 22 0 14 0;
#X connect 23 0 15 0;
#X connect 24 0 2 0;
#X connect 25 0 3 0;
#X connect 26 0 0 0;
#X connect 27 0 1 0;
#X connect 28 0 29 0;
#X connect 29 0 24 0;
#X connect 29 0 25 0;
#X connect 29 0 26 0;
#X connect 29 0 27 0;
#X connect 29 0 30 0;
#X connect 30 0 4 0;
#X coords 0 -1 1 1 60 20 1 0 0;
