#N canvas 441 70 308 316 10;
#X declare -lib mrpeach;
#X obj 200 13 inlet;
#X floatatom 200 98 5 0 0 0 - - -;
#X obj 142 13 initbang;
#X obj 37 37 import mrpeach;
#X obj 200 40 routeOSC /NOISE;
#X obj 29 210 noise~;
#X obj 89 243 pink~;
#X obj 149 224 snapshot~;
#X msg 149 172 1;
#X msg 170 40 0.5;
#X obj 29 283 outlet~;
#X obj 89 283 outlet~;
#X obj 149 283 outlet~;
#X obj 149 250 sig~;
#X obj 200 172 -;
#X obj 149 197 metro 100;
#X msg 200 144 100;
#X obj 200 120 * 99;
#X obj 200 68 routeOSC /freq;
#X connect 0 0 4 0;
#X connect 1 0 17 0;
#X connect 2 0 9 0;
#X connect 2 0 8 0;
#X connect 4 0 18 0;
#X connect 5 0 7 0;
#X connect 5 0 10 0;
#X connect 6 0 11 0;
#X connect 7 0 13 0;
#X connect 8 0 15 0;
#X connect 9 0 1 0;
#X connect 13 0 12 0;
#X connect 14 0 15 1;
#X connect 15 0 7 0;
#X connect 16 0 14 0;
#X connect 17 0 14 1;
#X connect 17 0 16 0;
#X connect 18 0 1 0;
