#N canvas 83 692 202 141 10;
#X declare -lib mrpeach;
#X obj 112 67 loadbang;
#X msg 112 97 \; pd dsp 1;
#X msg 41 90 \; pd dsp 0;
#N canvas 18 43 450 749 new 1;
#X obj 5 5 inlet;
#X restore 6 68 pd new;
#X obj 68 67 print;
#X obj 111 8 import mrpeach;
#X obj 6 8 udpreceive 8668;
#X obj 6 38 unpackOSC;
#X obj 68 38 netreceive 8667 0 old;
#X connect 0 0 1 0;
#X connect 6 0 7 0;
#X connect 7 0 4 0;
#X connect 7 0 3 0;
#X connect 8 0 4 0;
