#N canvas 1006 23 571 692 10;
#X obj 269 91 inlet~;
#X obj 226 91 bang~;
#X obj 269 128 snapshot~;
#X obj 269 224 spigot;
#X obj 269 259 outlet;
#X obj 269 158 > 0;
#X floatatom 317 166 5 0 0 0 - - -;
#X obj 302 190 !=;
#X connect 0 0 2 0;
#X connect 1 0 2 0;
#X connect 2 0 5 0;
#X connect 3 0 4 0;
#X connect 3 0 6 0;
#X connect 5 0 7 0;
#X connect 5 0 3 0;
#X connect 6 0 7 1;
#X connect 7 0 3 1;
