#N canvas 1006 23 449 665 10;
#X obj 67 30 inlet~;
#X obj 24 30 bang~;
#X obj 67 67 snapshot~;
#X msg 89 240 1;
#X obj 104 397 !=;
#X obj 71 431 spigot;
#X msg 109 216 1;
#X obj 70 124 sel 1;
#X obj 70 166 t b b b;
#X msg 70 221 1;
#X obj 160 167 t b b b;
#X msg 160 216 0;
#X msg 199 213 0;
#X msg 179 240 0;
#X obj 71 479 outlet;
#X obj 70 90 > 0;
#X connect 0 0 2 0;
#X connect 1 0 2 0;
#X connect 2 0 15 0;
#X connect 3 0 5 0;
#X connect 4 0 5 1;
#X connect 5 0 14 0;
#X connect 6 0 4 0;
#X connect 7 0 8 0;
#X connect 7 1 10 0;
#X connect 8 0 9 0;
#X connect 8 1 3 0;
#X connect 8 2 6 0;
#X connect 9 0 4 1;
#X connect 10 0 11 0;
#X connect 10 1 13 0;
#X connect 10 2 12 0;
#X connect 11 0 4 1;
#X connect 12 0 4 0;
#X connect 13 0 5 0;
#X connect 15 0 7 0;
