#N canvas 499 128 264 316 10;
#X obj 60 -2 inlet~;
#X text 60 -15 1V/O;
#X obj 60 198 mtof~;
#X obj 21 21 bang~;
#X obj 60 48 snapshot~;
#X obj 60 78 + 1;
#X obj 60 108 / 2;
#X obj 60 168 * 127;
#X obj 60 258 outlet~;
#X obj 152 -2 inlet;
#X obj 152 48 routeOSC /freq;
#X floatatom 152 72 5 0 0 0 - - -;
#X obj 60 138 + 0;
#X obj 152 25 routeOSC /SINE;
#X obj 60 228 osc~;
#X obj 124 122 * 0.1;
#X obj 60 22 feedbacker~;
#X connect 0 0 16 0;
#X connect 2 0 14 0;
#X connect 3 0 4 0;
#X connect 4 0 5 0;
#X connect 5 0 6 0;
#X connect 6 0 12 0;
#X connect 7 0 2 0;
#X connect 9 0 13 0;
#X connect 10 0 11 0;
#X connect 11 0 15 0;
#X connect 12 0 7 0;
#X connect 13 0 10 0;
#X connect 14 0 8 0;
#X connect 15 0 12 1;
#X connect 16 0 4 0;
