#N canvas 1041 23 563 462 10;
#X obj 73 396 outlet~;
#X obj 73 293 osc~;
#X obj 73 148 inlet;
#X obj 73 203 routeOSC /freq;
#X floatatom 73 233 5 0 0 0 - - -;
#X obj 73 175 routeOSC /SLFO;
#X obj 73 262 * 25;
#X obj 232 205 loadbang;
#X msg 244 237 0.2;
#X connect 1 0 0 0;
#X connect 2 0 5 0;
#X connect 3 0 4 0;
#X connect 4 0 6 0;
#X connect 5 0 3 0;
#X connect 6 0 1 0;
#X connect 7 0 8 0;
#X connect 8 0 4 0;
