#N canvas 432 62 270 208 10;
#X obj 83 180 outlet~;
#X obj 82 151 osc~;
#X obj 82 7 inlet;
#X obj 82 65 routeOSC /freq;
#X floatatom 82 94 5 0 0 0 - - -;
#X obj 82 36 routeOSC /SLFO;
#X obj 175 38 initbang;
#X msg 8 123 1;
#X obj 8 7 inlet~;
#X obj 8 65 sigToGate;
#X obj 8 94 sel 1;
#X msg 175 67 0.5;
#X obj 82 122 * 12;
#X obj 8 36 feedbacker~;
#X connect 1 0 0 0;
#X connect 2 0 5 0;
#X connect 3 0 4 0;
#X connect 4 0 12 0;
#X connect 5 0 3 0;
#X connect 6 0 11 0;
#X connect 7 0 1 1;
#X connect 8 0 13 0;
#X connect 9 0 10 0;
#X connect 10 0 7 0;
#X connect 11 0 4 0;
#X connect 12 0 1 0;
#X connect 13 0 9 0;
