#N canvas 961 109 242 346 10;
#X declare -lib mrpeach;
#X obj 62 11 import mrpeach;
#X obj 11 177 snapshot~;
#X obj 11 236 outlet~;
#X obj 11 203 sig~;
#X obj 42 32 inlet~;
#X obj 42 104 sigToGate;
#X obj 42 129 sel 1;
#X obj 11 11 inlet~;
#X obj 118 35 inlet;
#X obj 42 157 bng 15 250 50 0 empty empty empty 17 7 0 10 -262144 -1
-1;
#X obj 42 57 feedbacker~;
#X obj 11 78 feedbacker~;
#X connect 1 0 3 0;
#X connect 3 0 2 0;
#X connect 4 0 10 0;
#X connect 5 0 6 0;
#X connect 6 0 9 0;
#X connect 7 0 11 0;
#X connect 9 0 1 0;
#X connect 10 0 5 0;
#X connect 11 0 1 0;
