#N canvas 468 81 474 507 10;
#X declare -lib mrpeach;
#X obj 57 35 inlet~;
#X text 59 13 1V/O;
#X obj 59 209 mtof~;
#X obj 17 35 bang~;
#X obj 59 62 snapshot~;
#X obj 59 92 + 1;
#X obj 59 122 / 2;
#X obj 59 179 * 127;
#X obj 60 389 outlet~;
#X obj 152 10 inlet;
#X floatatom 152 95 5 0 0 0 - - -;
#X obj 59 152 + 0;
#X obj 124 128 * 0.1;
#X obj 59 233 phasor~;
#X obj 60 309 *~ 2;
#X floatatom 254 96 5 0 0 0 - - -;
#X obj 59 268 expr~ $v1 > $v2;
#X obj 146 210 initbang;
#X msg 146 239 0.5;
#X obj 60 349 -~ 1;
#X obj 341 31 import mrpeach;
#X obj 254 66 routeOSC /width;
#X obj 152 65 routeOSC /freq;
#X obj 152 37 routeOSC /SQR;
#X connect 0 0 4 0;
#X connect 2 0 13 0;
#X connect 3 0 4 0;
#X connect 4 0 5 0;
#X connect 5 0 6 0;
#X connect 6 0 11 0;
#X connect 7 0 2 0;
#X connect 9 0 23 0;
#X connect 10 0 12 0;
#X connect 11 0 7 0;
#X connect 12 0 11 1;
#X connect 13 0 16 0;
#X connect 14 0 19 0;
#X connect 15 0 16 1;
#X connect 16 0 14 0;
#X connect 17 0 18 0;
#X connect 18 0 16 1;
#X connect 19 0 8 0;
#X connect 21 0 15 0;
#X connect 22 0 10 0;
#X connect 23 0 21 0;
#X connect 23 0 22 0;
