#N canvas 992 52 304 386 10;
#X declare -lib mrpeach;
#X obj 69 25 inlet~;
#X text 69 3 1V/O;
#X obj 69 219 mtof~;
#X obj 27 45 bang~;
#X obj 69 72 snapshot~;
#X obj 69 102 + 1;
#X obj 69 132 / 2;
#X obj 69 189 * 127;
#X obj 69 355 outlet~;
#X obj 162 20 inlet;
#X floatatom 162 105 5 0 0 0 - - -;
#X obj 69 162 + 0;
#X obj 134 138 * 0.1;
#X obj 69 243 phasor~;
#X obj 69 279 *~ 2;
#X obj 69 312 -~ 1;
#X obj 205 20 import mrpeach;
#X obj 162 75 routeOSC /freq;
#X obj 138 317 *~ -1;
#X obj 139 356 outlet~;
#X obj 162 47 routeOSC /SAWRAMP;
#X obj 69 49 feedbacker~;
#X connect 0 0 21 0;
#X connect 2 0 13 0;
#X connect 3 0 4 0;
#X connect 4 0 5 0;
#X connect 5 0 6 0;
#X connect 6 0 11 0;
#X connect 7 0 2 0;
#X connect 9 0 20 0;
#X connect 10 0 12 0;
#X connect 11 0 7 0;
#X connect 12 0 11 1;
#X connect 13 0 14 0;
#X connect 14 0 15 0;
#X connect 15 0 8 0;
#X connect 15 0 18 0;
#X connect 17 0 10 0;
#X connect 18 0 19 0;
#X connect 20 0 17 0;
#X connect 21 0 4 0;
