#N canvas 990 367 287 292 10;
#X declare -lib mrpeach;
#X text 155 -78 ENV;
#X text 31 -77 INPUT;
#X msg 93 55 0.5;
#X obj 93 29 initbang;
#X obj 36 -60 inlet~;
#X obj 116 -58 inlet~;
#X obj 52 25 *~;
#X obj 37 51 *~;
#X obj 37 113 *~;
#X obj 37 148 outlet~;
#X obj 192 -53 inlet;
#X obj 52 87 * 2;
#X text 219 -78 OSC;
#X obj 115 -33 feedbacker~;
#X obj 37 -33 feedbacker~;
#X obj 165 144 import mrpeach;
#X obj 106 -5 routeOSC /amount;
#X obj 192 -5 routeOSC /gain;
#X obj 192 -31 routeOSC /VCA;
#X connect 2 0 6 1;
#X connect 2 0 11 0;
#X connect 3 0 2 0;
#X connect 4 0 14 0;
#X connect 5 0 13 0;
#X connect 6 0 7 1;
#X connect 7 0 8 0;
#X connect 8 0 9 0;
#X connect 10 0 18 0;
#X connect 11 0 8 1;
#X connect 13 0 6 0;
#X connect 14 0 7 0;
#X connect 16 0 6 1;
#X connect 17 0 11 0;
#X connect 18 0 16 0;
#X connect 18 0 17 0;
#X coords 0 292 1 291 30 17 0;
