#N canvas 1218 23 445 314 10;
#X text 155 -56 ENV;
#X text 101 -55 INPUT;
#X msg 359 47 0.5;
#X obj 359 21 loadbang;
#X obj 106 -38 inlet~;
#X obj 159 -36 inlet~;
#X obj 252 77 *~;
#X obj 237 103 *~;
#X obj 237 165 *~;
#X obj 237 200 outlet~;
#X obj 217 -36 inlet;
#X obj 217 -7 route /VCA;
#X obj 217 27 route /gain;
#X obj 267 47 route /amount;
#X obj 252 139 * 2;
#X text 219 -56 OSC;
#X connect 2 0 6 1;
#X connect 2 0 14 0;
#X connect 3 0 2 0;
#X connect 4 0 7 0;
#X connect 5 0 6 0;
#X connect 6 0 7 1;
#X connect 7 0 8 0;
#X connect 8 0 9 0;
#X connect 10 0 11 0;
#X connect 11 0 12 0;
#X connect 11 0 13 0;
#X connect 12 0 14 0;
#X connect 13 0 6 1;
#X connect 14 0 8 1;
#X coords 0 924 1 923 30 17 1 100 100;
