#N canvas 439 23 684 524 10;
#X obj 13 45 inlet~;
#X obj 75 45 inlet~;
#X text 22 28 Input;
#X text 80 26 Input;
#X obj 13 78 +~;
#X obj 135 45 inlet~;
#X obj 87 308 lowpass;
#X obj 135 98 *~;
#X obj 190 45 inlet~;
#X obj 190 98 *~;
#X obj 265 45 inlet~;
#X obj 265 99 *~;
#X obj 315 43 inlet~;
#X obj 315 97 *~;
#X obj 251 -29 initbang;
#X msg 250 -6 0.5;
#X obj 135 126 +~;
#X obj 265 128 +~;
#X obj 135 162 +~;
#X obj 265 161 +~;
#X obj 87 373 biquad~;
#X obj 207 373 biquad~;
#X obj 207 270 trigger bang float;
#X obj 87 270 trigger bang float;
#X obj 335 374 biquad~;
#X obj 455 374 biquad~;
#X obj 455 271 trigger bang float;
#X obj 335 271 trigger bang float;
#X obj 207 410 outlet~;
#X obj 87 409 outlet~;
#X obj 455 411 outlet~;
#X obj 335 410 outlet~;
#X obj 187 160 bang~;
#X obj 135 191 snapshot~;
#X obj 135 223 * 2000;
#X obj 207 308 highpass;
#X obj 335 309 bandpass;
#X obj 455 309 notch;
#X obj 265 226 * 300;
#X obj 265 199 snapshot~;
#X text 194 22 FREQCV2;
#X text 139 22 FREQCV1;
#X text 269 22 RESCV1;
#X text 319 20 RESCV2;
#X obj 382 -48 inlet;
#X obj 382 -20 route /VCF;
#X obj 382 30 route /frequency;
#X obj 450 76 route /fqamount2;
#X obj 416 53 route /fqamount1;
#X obj 492 30 route /resonance;
#X obj 526 53 route /resamount1;
#X obj 560 76 route /resamount2;
#X connect 0 0 4 0;
#X connect 1 0 4 1;
#X connect 4 0 20 0;
#X connect 4 0 21 0;
#X connect 4 0 24 0;
#X connect 4 0 25 0;
#X connect 5 0 7 0;
#X connect 6 0 20 0;
#X connect 7 0 16 0;
#X connect 8 0 9 0;
#X connect 9 0 16 1;
#X connect 10 0 11 0;
#X connect 11 0 17 0;
#X connect 12 0 13 0;
#X connect 13 0 17 1;
#X connect 14 0 15 0;
#X connect 15 0 9 1;
#X connect 15 0 7 1;
#X connect 15 0 11 1;
#X connect 15 0 13 1;
#X connect 16 0 18 0;
#X connect 17 0 19 0;
#X connect 18 0 33 0;
#X connect 19 0 39 0;
#X connect 20 0 29 0;
#X connect 21 0 28 0;
#X connect 22 0 35 0;
#X connect 22 1 35 1;
#X connect 23 0 6 0;
#X connect 23 1 6 1;
#X connect 24 0 31 0;
#X connect 25 0 30 0;
#X connect 26 0 37 0;
#X connect 26 1 37 1;
#X connect 27 0 36 0;
#X connect 27 1 36 1;
#X connect 32 0 33 0;
#X connect 32 0 39 0;
#X connect 33 0 34 0;
#X connect 34 0 6 0;
#X connect 34 0 35 0;
#X connect 34 0 36 0;
#X connect 34 0 37 0;
#X connect 35 0 21 0;
#X connect 36 0 24 0;
#X connect 37 0 25 0;
#X connect 38 0 23 0;
#X connect 38 0 22 0;
#X connect 38 0 27 0;
#X connect 38 0 26 0;
#X connect 39 0 38 0;
#X connect 44 0 45 0;
#X connect 45 0 46 0;
#X connect 45 0 48 0;
#X connect 45 0 47 0;
#X connect 45 0 49 0;
#X connect 45 0 50 0;
#X connect 45 0 51 0;
#X connect 46 0 18 1;
#X connect 47 0 9 1;
#X connect 48 0 7 1;
#X connect 49 0 19 1;
#X connect 50 0 11 1;
#X connect 51 0 13 1;
#X coords 0 -1 1 1 100 18 1 0 0;
