#N canvas 429 23 814 580 10;
#X obj 47 24 inlet~;
#X text 49 7 1V/O;
#X obj 46 311 sin~;
#X obj 45 519 outlet~;
#X text 45 544 Sine;
#X text 105 549 Square;
#X obj 101 520 outlet~;
#X obj 158 519 outlet~;
#X text 163 550 Ramp;
#X text 218 552 Saw;
#X obj 222 457 *~ -1;
#X obj 222 520 outlet~;
#X obj 115 24 inlet~;
#X text 124 7 PWM;
#X obj 177 24 inlet~;
#X obj 245 24 inlet~;
#X text 189 4 FM;
#X text 253 3 FM;
#X text 306 2 FREQ;
#X text 376 2 FINE;
#X text 441 1 PWM;
#X text 508 0 PAMNT;
#X text 565 2 FAMNT;
#X text 633 3 FAMNT;
#X obj 375 24 inlet;
#X obj 307 24 inlet;
#X obj 437 24 inlet;
#X obj 505 24 inlet;
#X obj 565 22 inlet;
#X obj 633 21 inlet;
#X obj 47 165 mtof~;
#X obj 101 255 expr~ $v1 > $v2;
#X floatatom 187 172 5 0 0 0 - - -;
#X floatatom 240 145 5 0 0 0 - - -;
#X obj 225 172 *~;
#X obj 225 123 +~ 1;
#X obj 225 97 /~ 2;
#X obj 187 200 +~;
#X obj 129 450 dac~;
#X obj 47 197 phasor~;
#X obj 158 356 *~ 2;
#X obj 158 397 -~ 1;
#X obj 7 25 bang~;
#X obj 47 56 snapshot~;
#X obj 47 79 + 1;
#X obj 47 109 / 2;
#X obj 47 136 * 127;
#X obj 618 99 *~;
#X obj 550 102 *~;
#X obj 437 314 * 127;
#X connect 0 0 43 0;
#X connect 2 0 3 0;
#X connect 10 0 11 0;
#X connect 12 0 36 0;
#X connect 14 0 48 0;
#X connect 15 0 47 0;
#X connect 26 0 32 0;
#X connect 27 0 33 0;
#X connect 28 0 48 1;
#X connect 29 0 47 1;
#X connect 30 0 39 0;
#X connect 31 0 6 0;
#X connect 32 0 37 0;
#X connect 33 0 34 1;
#X connect 34 0 37 1;
#X connect 35 0 34 0;
#X connect 36 0 35 0;
#X connect 37 0 31 1;
#X connect 39 0 2 0;
#X connect 39 0 31 0;
#X connect 39 0 40 0;
#X connect 40 0 41 0;
#X connect 41 0 10 0;
#X connect 41 0 7 0;
#X connect 42 0 43 0;
#X connect 43 0 44 0;
#X connect 44 0 45 0;
#X connect 45 0 46 0;
#X connect 46 0 30 0;
