#N canvas 379 161 556 398 10;
#X declare -lib mrpeach;
#X obj -34 -90 inlet~;
#X obj -34 -39 sigToGate;
#X msg -34 -12 1;
#X floatatom -7 17 5 0 0 0 - - -;
#X obj -34 16 +;
#X obj 66 113 route 3;
#X obj 116 113 route 4;
#X obj 166 113 route 5;
#X obj 216 113 route 6;
#X obj 266 113 route 7;
#X obj 316 113 route 8;
#X obj 152 296 sig~;
#X obj 152 322 outlet~;
#X obj -34 -64 feedbacker~;
#X obj 16 113 route 2;
#X obj -34 115 route 1;
#X msg -7 -12 0;
#X obj 46 -89 inlet~;
#X obj 46 -39 sigToGate;
#X obj 46 -64 feedbacker~;
#X floatatom -34 163 5 0 0 0 - - -;
#X floatatom 19 163 5 0 0 0 - - -;
#X floatatom 66 163 5 0 0 0 - - -;
#X floatatom 119 160 5 0 0 0 - - -;
#X floatatom 168 161 5 0 0 0 - - -;
#X floatatom 222 162 5 0 0 0 - - -;
#X floatatom 276 157 5 0 0 0 - - -;
#X floatatom 321 156 5 0 0 0 - - -;
#X floatatom 152 207 5 0 0 0 - - -;
#X obj 152 236 * 2;
#X obj 152 264 - 1;
#X obj 154 -86 inlet;
#X obj 203 -85 import mrpeach;
#X obj 154 -56 routeOSC /VSEQ;
#X obj -63 91 routeOSC /1;
#X obj -13 71 routeOSC /2;
#X obj 37 91 routeOSC /3;
#X obj 87 71 routeOSC /4;
#X obj 137 91 routeOSC /5;
#X obj 187 71 routeOSC /6;
#X obj 237 91 routeOSC /7;
#X obj 287 71 routeOSC /8;
#X connect 0 0 13 0;
#X connect 1 0 2 0;
#X connect 2 0 4 0;
#X connect 3 0 4 1;
#X connect 3 0 5 0;
#X connect 3 0 6 0;
#X connect 3 0 7 0;
#X connect 3 0 8 0;
#X connect 3 0 9 0;
#X connect 3 0 10 0;
#X connect 3 0 14 0;
#X connect 3 0 15 0;
#X connect 4 0 3 0;
#X connect 5 0 22 0;
#X connect 6 0 23 0;
#X connect 7 0 24 0;
#X connect 8 0 25 0;
#X connect 9 0 26 0;
#X connect 10 0 16 0;
#X connect 10 0 27 0;
#X connect 11 0 12 0;
#X connect 13 0 1 0;
#X connect 14 0 21 0;
#X connect 15 0 20 0;
#X connect 16 0 3 0;
#X connect 17 0 19 0;
#X connect 18 0 16 0;
#X connect 19 0 18 0;
#X connect 20 0 28 0;
#X connect 21 0 28 0;
#X connect 22 0 28 0;
#X connect 23 0 28 0;
#X connect 24 0 28 0;
#X connect 25 0 28 0;
#X connect 26 0 28 0;
#X connect 27 0 28 0;
#X connect 28 0 29 0;
#X connect 29 0 30 0;
#X connect 30 0 11 0;
#X connect 31 0 33 0;
#X connect 33 0 34 0;
#X connect 33 0 35 0;
#X connect 33 0 36 0;
#X connect 33 0 37 0;
#X connect 33 0 38 0;
#X connect 33 0 39 0;
#X connect 33 0 40 0;
#X connect 33 0 41 0;
#X connect 34 0 20 0;
#X connect 35 0 21 0;
#X connect 36 0 22 0;
#X connect 37 0 23 0;
#X connect 38 0 24 0;
#X connect 39 0 25 0;
#X connect 40 0 26 0;
#X connect 41 0 27 0;
